<mxfile host="app.diagrams.net" modified="2023-05-25T07:44:24.894Z" agent="Mozilla/5.0 (Windows NT 10.0; Win64; x64) AppleWebKit/537.36 (KHTML, like Gecko) Chrome/113.0.0.0 Safari/537.36 Edg/113.0.1774.42" etag="XscSS8lmrTAsHBipPH5A" version="21.3.2" type="github">
  <diagram name="第 1 页" id="4w3-Xrk-3zR-6FKFmk_o">
    <mxGraphModel dx="473" dy="573" grid="1" gridSize="10" guides="1" tooltips="1" connect="1" arrows="1" fold="1" page="1" pageScale="1" pageWidth="827" pageHeight="1169" math="0" shadow="0">
      <root>
        <mxCell id="0" />
        <mxCell id="1" parent="0" />
        <mxCell id="XBm4bPBq2nCiCpjxN_rx-1" value="网关" style="whiteSpace=wrap;html=1;aspect=fixed;" vertex="1" parent="1">
          <mxGeometry x="220" y="80" width="110" height="110" as="geometry" />
        </mxCell>
        <mxCell id="XBm4bPBq2nCiCpjxN_rx-2" value="Actor" style="shape=umlActor;verticalLabelPosition=bottom;verticalAlign=top;html=1;outlineConnect=0;" vertex="1" parent="1">
          <mxGeometry x="50" y="110" width="30" height="60" as="geometry" />
        </mxCell>
        <mxCell id="XBm4bPBq2nCiCpjxN_rx-3" value="请求" style="endArrow=classic;html=1;rounded=0;exitX=1;exitY=0.3333333333333333;exitDx=0;exitDy=0;exitPerimeter=0;entryX=0;entryY=0.5;entryDx=0;entryDy=0;" edge="1" parent="1" source="XBm4bPBq2nCiCpjxN_rx-2" target="XBm4bPBq2nCiCpjxN_rx-1">
          <mxGeometry width="50" height="50" relative="1" as="geometry">
            <mxPoint x="230" y="320" as="sourcePoint" />
            <mxPoint x="280" y="270" as="targetPoint" />
          </mxGeometry>
        </mxCell>
        <mxCell id="XBm4bPBq2nCiCpjxN_rx-4" value="统一认证" style="text;html=1;align=center;verticalAlign=middle;resizable=0;points=[];autosize=1;strokeColor=none;fillColor=none;" vertex="1" parent="1">
          <mxGeometry x="240" y="40" width="70" height="30" as="geometry" />
        </mxCell>
        <mxCell id="XBm4bPBq2nCiCpjxN_rx-5" value="请求监控" style="text;html=1;align=center;verticalAlign=middle;resizable=0;points=[];autosize=1;strokeColor=none;fillColor=none;" vertex="1" parent="1">
          <mxGeometry x="240" y="205" width="70" height="30" as="geometry" />
        </mxCell>
        <mxCell id="XBm4bPBq2nCiCpjxN_rx-6" value="图书服务" style="ellipse;whiteSpace=wrap;html=1;" vertex="1" parent="1">
          <mxGeometry x="450" y="60" width="100" height="60" as="geometry" />
        </mxCell>
        <mxCell id="XBm4bPBq2nCiCpjxN_rx-7" value="账户服务" style="ellipse;whiteSpace=wrap;html=1;" vertex="1" parent="1">
          <mxGeometry x="450" y="145" width="100" height="60" as="geometry" />
        </mxCell>
        <mxCell id="XBm4bPBq2nCiCpjxN_rx-8" value="" style="endArrow=classic;html=1;rounded=0;entryX=0;entryY=0.5;entryDx=0;entryDy=0;exitX=1;exitY=0.5;exitDx=0;exitDy=0;" edge="1" parent="1" source="XBm4bPBq2nCiCpjxN_rx-1" target="XBm4bPBq2nCiCpjxN_rx-6">
          <mxGeometry width="50" height="50" relative="1" as="geometry">
            <mxPoint x="420" y="320" as="sourcePoint" />
            <mxPoint x="470" y="270" as="targetPoint" />
          </mxGeometry>
        </mxCell>
        <mxCell id="XBm4bPBq2nCiCpjxN_rx-9" value="" style="endArrow=classic;html=1;rounded=0;entryX=-0.038;entryY=0.643;entryDx=0;entryDy=0;entryPerimeter=0;exitX=1;exitY=0.5;exitDx=0;exitDy=0;" edge="1" parent="1" source="XBm4bPBq2nCiCpjxN_rx-1" target="XBm4bPBq2nCiCpjxN_rx-7">
          <mxGeometry width="50" height="50" relative="1" as="geometry">
            <mxPoint x="420" y="320" as="sourcePoint" />
            <mxPoint x="470" y="270" as="targetPoint" />
          </mxGeometry>
        </mxCell>
      </root>
    </mxGraphModel>
  </diagram>
</mxfile>
